<svg xmlns="http://www.w3.org/2000/svg" viewBox="0 0 64 64">
  <!-- Shield body -->
  <path d="M32 4 L58 16 L58 36 C58 50 46 60 32 62 C18 60 6 50 6 36 L6 16 Z"
        fill="#1a5c2a"/>
  <!-- Shield highlight -->
  <path d="M32 8 L54 19 L54 36 C54 48.5 43.5 57.5 32 59.5 C20.5 57.5 10 48.5 10 36 L10 19 Z"
        fill="#2d8a47"/>
  <!-- Gold sun ring -->
  <circle cx="32" cy="30" r="13" fill="none" stroke="#f5c518" stroke-width="3"/>
  <!-- "026" text -->
  <text x="32" y="34" font-family="Arial Black, sans-serif" font-size="10" font-weight="900"
        fill="#f5c518" text-anchor="middle" letter-spacing="-0.5">026</text>
  <!-- Kenya flag stripe at bottom of shield -->
  <path d="M14 48 Q18 52 32 53 Q46 52 50 48 L50 50 Q44 55 32 56 Q20 55 14 50 Z"
        fill="#c8102e"/>
</svg>
