<svg viewBox="0 0 512 512" xmlns="http://www.w3.org/2000/svg">
  <!-- Background gradient -->
  <defs>
    <linearGradient id="bgGradient" x1="0%" y1="0%" x2="100%" y2="100%">
      <stop offset="0%" style="stop-color:#1a5c2a;stop-opacity:1" />
      <stop offset="100%" style="stop-color:#0d3015;stop-opacity:1" />
    </linearGradient>
    <linearGradient id="accentGradient" x1="0%" y1="0%" x2="100%" y2="100%">
      <stop offset="0%" style="stop-color:#4caf28;stop-opacity:1" />
      <stop offset="100%" style="stop-color:#c8102e;stop-opacity:1" />
    </linearGradient>
  </defs>
  
  <!-- Main background -->
  <rect width="512" height="512" fill="url(#bgGradient)"/>
  
  <!-- Accent stripe (top-right) -->
  <polygon points="512,0 512,120 392,0" fill="#c8102e" opacity="0.9"/>
  
  <!-- Secondary accent stripe (bottom-left) -->
  <polygon points="0,512 0,392 120,512" fill="#4caf28" opacity="0.85"/>
  
  <!-- Central design element - news icon -->
  <g transform="translate(256, 256)">
    <!-- Newspaper icon -->
    <rect x="-80" y="-70" width="160" height="140" fill="none" stroke="#ffffff" stroke-width="8" rx="8"/>
    
    <!-- Header line -->
    <line x1="-70" y1="-55" x2="70" y2="-55" stroke="#4caf28" stroke-width="6"/>
    
    <!-- Article lines -->
    <line x1="-70" y1="-30" x2="70" y2="-30" stroke="#ffffff" stroke-width="4"/>
    <line x1="-70" y1="-15" x2="70" y2="-15" stroke="#ffffff" stroke-width="4"/>
    <line x1="-70" y1="0" x2="50" y2="0" stroke="#ffffff" stroke-width="4"/>
    
    <!-- Content rectangle -->
    <rect x="-70" y="15" width="140" height="50" fill="#c8102e" opacity="0.2" rx="4"/>
    
    <!-- News badge -->
    <circle cx="55" cy="38" r="18" fill="#c8102e"/>
    <text x="55" y="45" font-size="24" font-weight="bold" fill="#ffffff" text-anchor="middle" font-family="Arial, sans-serif">0</text>
  </g>
  
  <!-- Text: 026news -->
  <text x="256" y="420" font-size="56" font-weight="bold" fill="#ffffff" text-anchor="middle" font-family="Arial, Helvetica, sans-serif" letter-spacing="2">
    026
  </text>
  <text x="256" y="420" font-size="56" font-weight="bold" fill="#4caf28" text-anchor="middle" font-family="Arial, Helvetica, sans-serif" letter-spacing="2" opacity="0.95">
    <tspan x="256" dy="0" fill="#c8102e">NEWS</tspan>
  </text>
</svg>
