<svg xmlns="http://www.w3.org/2000/svg" viewBox="0 0 64 64" fill="none">
  <!-- Shield -->
  <path d="M8 8 L56 8 Q60 8 60 12 L60 38 Q60 56 32 64 Q4 56 4 38 L4 12 Q4 8 8 8 Z" fill="#1a5c2a"/>
  <path d="M12 12 L52 12 Q55 12 55 15 L55 38 Q55 54 32 61 Q9 54 9 38 L9 15 Q9 12 12 12 Z" fill="white"/>
  <!-- Sun -->
  <circle cx="32" cy="26" r="6" fill="#f5c518"/>
  <line x1="32" y1="14" x2="32" y2="18" stroke="#f5c518" stroke-width="2" stroke-linecap="round"/>
  <line x1="32" y1="34" x2="32" y2="38" stroke="#f5c518" stroke-width="2" stroke-linecap="round"/>
  <line x1="20" y1="26" x2="24" y2="26" stroke="#f5c518" stroke-width="2" stroke-linecap="round"/>
  <line x1="40" y1="26" x2="44" y2="26" stroke="#f5c518" stroke-width="2" stroke-linecap="round"/>
  <line x1="23" y1="19" x2="26" y2="22" stroke="#f5c518" stroke-width="2" stroke-linecap="round"/>
  <line x1="38" y1="30" x2="41" y2="33" stroke="#f5c518" stroke-width="2" stroke-linecap="round"/>
  <line x1="41" y1="19" x2="38" y2="22" stroke="#f5c518" stroke-width="2" stroke-linecap="round"/>
  <line x1="23" y1="33" x2="26" y2="30" stroke="#f5c518" stroke-width="2" stroke-linecap="round"/>
  <!-- Mountain -->
  <path d="M14 44 L24 30 L28 36 L32 28 L44 44 Z" fill="#2d8a47" opacity="0.6"/>
  <!-- Kenya ribbon -->
  <rect x="4" y="56" width="56" height="3" fill="#c8102e" rx="1"/>
  <rect x="4" y="59" width="56" height="2" fill="#1a1a1a" rx="1"/>
  <rect x="4" y="61" width="56" height="3" fill="#1a5c2a" rx="1"/>
</svg>
